<mxfile host="app.diagrams.net" modified="2023-05-16T08:58:52.916Z" agent="Mozilla/5.0 (Windows NT 10.0; Win64; x64) AppleWebKit/537.36 (KHTML, like Gecko) Chrome/113.0.0.0 Safari/537.36" etag="hxM3hJMzfS7LmbZNBoyW" version="21.3.2" type="device">
  <diagram name="Страница 1" id="7igpUd0pKaUkpBXzIByu">
    <mxGraphModel dx="1588" dy="876" grid="1" gridSize="10" guides="1" tooltips="1" connect="1" arrows="1" fold="1" page="1" pageScale="1" pageWidth="827" pageHeight="1169" math="0" shadow="0">
      <root>
        <mxCell id="0" />
        <mxCell id="1" parent="0" />
        <mxCell id="anv_v0dvvLosbIdGf6-w-45" value="" style="whiteSpace=wrap;html=1;aspect=fixed;" parent="1" vertex="1">
          <mxGeometry x="9" y="10" width="810" height="810" as="geometry" />
        </mxCell>
        <mxCell id="anv_v0dvvLosbIdGf6-w-1" value="&lt;b&gt;customer`s computer&lt;/b&gt;" style="rounded=1;whiteSpace=wrap;html=1;" parent="1" vertex="1">
          <mxGeometry x="30" y="310" width="120" height="60" as="geometry" />
        </mxCell>
        <mxCell id="anv_v0dvvLosbIdGf6-w-3" value="" style="endArrow=classic;html=1;rounded=1;endFill=1;strokeColor=default;startArrow=classic;startFill=1;exitX=0.5;exitY=0;exitDx=0;exitDy=0;entryX=0;entryY=0.5;entryDx=0;entryDy=0;edgeStyle=orthogonalEdgeStyle;" parent="1" source="anv_v0dvvLosbIdGf6-w-1" target="anv_v0dvvLosbIdGf6-w-6" edge="1">
          <mxGeometry relative="1" as="geometry">
            <mxPoint x="190" y="290" as="sourcePoint" />
            <mxPoint x="270" y="290" as="targetPoint" />
            <Array as="points">
              <mxPoint x="90" y="85" />
            </Array>
          </mxGeometry>
        </mxCell>
        <mxCell id="anv_v0dvvLosbIdGf6-w-4" value="check authentication" style="edgeLabel;resizable=0;html=1;align=center;verticalAlign=middle;" parent="anv_v0dvvLosbIdGf6-w-3" connectable="0" vertex="1">
          <mxGeometry relative="1" as="geometry">
            <mxPoint x="110" y="-2" as="offset" />
          </mxGeometry>
        </mxCell>
        <mxCell id="anv_v0dvvLosbIdGf6-w-6" value="&lt;b&gt;auth-service&lt;/b&gt;&lt;br&gt;&lt;font style=&quot;font-size: 10px;&quot;&gt;&lt;font color=&quot;#b3b3b3&quot;&gt;go docker container&lt;br&gt;&lt;/font&gt;&lt;br&gt;Checking the expiration token. Generation token.&lt;br&gt;&lt;/font&gt;" style="rounded=0;whiteSpace=wrap;html=1;" parent="1" vertex="1">
          <mxGeometry x="310" y="20" width="185" height="130" as="geometry" />
        </mxCell>
        <mxCell id="anv_v0dvvLosbIdGf6-w-7" value="&lt;b&gt;database&lt;/b&gt;&lt;br&gt;&lt;font style=&quot;font-size: 10px;&quot;&gt;&lt;font color=&quot;#b3b3b3&quot;&gt;go docker container&lt;br&gt;PostgreSQL&lt;/font&gt;&lt;br&gt;&lt;br&gt;Store tables:&amp;nbsp;users, projects, teams, teamItems, tasks&lt;br&gt;&lt;/font&gt;" style="shape=cylinder3;whiteSpace=wrap;html=1;boundedLbl=1;backgroundOutline=1;size=15;" parent="1" vertex="1">
          <mxGeometry x="650" y="245" width="150" height="190" as="geometry" />
        </mxCell>
        <mxCell id="anv_v0dvvLosbIdGf6-w-21" value="&lt;b&gt;employee-service&lt;/b&gt;&lt;br&gt;&lt;font style=&quot;font-size: 10px;&quot;&gt;&lt;font color=&quot;#b3b3b3&quot;&gt;go docker container&lt;br&gt;&lt;/font&gt;&lt;br&gt;Registration user.&amp;nbsp;&lt;/font&gt;&lt;font style=&quot;font-size: 10px;&quot;&gt;Create, update, delete, find user by first name, last name, midle name, email, active status, find an activity profile by id.&lt;br&gt;&lt;/font&gt;" style="rounded=0;whiteSpace=wrap;html=1;" parent="1" vertex="1">
          <mxGeometry x="310" y="170" width="185" height="130" as="geometry" />
        </mxCell>
        <mxCell id="anv_v0dvvLosbIdGf6-w-23" value="&lt;b&gt;project-service&lt;/b&gt;&lt;br&gt;&lt;font style=&quot;font-size: 10px;&quot;&gt;&lt;font color=&quot;#b3b3b3&quot;&gt;go docker container&lt;br&gt;&lt;/font&gt;&lt;br&gt;&lt;/font&gt;&lt;font style=&quot;font-size: 10px;&quot;&gt;Create, update, delete, find a project&lt;br&gt;&amp;nbsp;by name, code and project`s filter (status). Change project status (draft, in developing, in testing, done).&lt;br&gt;&lt;/font&gt;" style="rounded=0;whiteSpace=wrap;html=1;" parent="1" vertex="1">
          <mxGeometry x="310" y="380" width="185" height="130" as="geometry" />
        </mxCell>
        <mxCell id="anv_v0dvvLosbIdGf6-w-24" value="&lt;b&gt;team-service&lt;/b&gt;&lt;br&gt;&lt;font style=&quot;font-size: 10px;&quot;&gt;&lt;font color=&quot;#b3b3b3&quot;&gt;go docker container&lt;br&gt;&lt;/font&gt;&lt;br&gt;&lt;/font&gt;&lt;font style=&quot;font-size: 10px;&quot;&gt;Add, delete a project member. Find all project members.&lt;br&gt;&lt;/font&gt;" style="rounded=0;whiteSpace=wrap;html=1;" parent="1" vertex="1">
          <mxGeometry x="310" y="530" width="185" height="130" as="geometry" />
        </mxCell>
        <mxCell id="anv_v0dvvLosbIdGf6-w-25" value="&lt;b&gt;task-service&lt;/b&gt;&lt;br&gt;&lt;font style=&quot;font-size: 10px;&quot;&gt;&lt;font color=&quot;#b3b3b3&quot;&gt;go docker container&lt;br&gt;&lt;/font&gt;&lt;br&gt;&lt;/font&gt;&lt;font style=&quot;font-size: 10px;&quot;&gt;Create, update, delete, find a task/tasks by name and any task`s filter (status, executor, author, expiration date, creation date). Change task status (new, in progress, done, closed).&lt;br&gt;&lt;/font&gt;" style="rounded=0;whiteSpace=wrap;html=1;" parent="1" vertex="1">
          <mxGeometry x="310" y="680" width="185" height="130" as="geometry" />
        </mxCell>
        <mxCell id="anv_v0dvvLosbIdGf6-w-26" value="" style="endArrow=classic;html=1;rounded=1;endFill=1;strokeColor=default;startArrow=classic;startFill=1;exitX=0.75;exitY=0;exitDx=0;exitDy=0;entryX=0;entryY=0.25;entryDx=0;entryDy=0;edgeStyle=orthogonalEdgeStyle;" parent="1" target="anv_v0dvvLosbIdGf6-w-21" edge="1">
          <mxGeometry relative="1" as="geometry">
            <mxPoint x="120" y="309.95" as="sourcePoint" />
            <mxPoint x="310" y="234.95" as="targetPoint" />
            <Array as="points">
              <mxPoint x="120" y="203" />
              <mxPoint x="310" y="203" />
            </Array>
          </mxGeometry>
        </mxCell>
        <mxCell id="anv_v0dvvLosbIdGf6-w-27" value="manage user" style="edgeLabel;resizable=0;html=1;align=center;verticalAlign=middle;" parent="anv_v0dvvLosbIdGf6-w-26" connectable="0" vertex="1">
          <mxGeometry relative="1" as="geometry">
            <mxPoint x="48" as="offset" />
          </mxGeometry>
        </mxCell>
        <mxCell id="anv_v0dvvLosbIdGf6-w-30" value="" style="endArrow=classic;html=1;rounded=1;endFill=1;strokeColor=default;startArrow=classic;startFill=1;exitX=0.75;exitY=1;exitDx=0;exitDy=0;entryX=0;entryY=0.5;entryDx=0;entryDy=0;edgeStyle=orthogonalEdgeStyle;jumpStyle=arc;" parent="1" source="anv_v0dvvLosbIdGf6-w-1" target="anv_v0dvvLosbIdGf6-w-23" edge="1">
          <mxGeometry relative="1" as="geometry">
            <mxPoint x="90" y="380" as="sourcePoint" />
            <mxPoint x="275" y="290" as="targetPoint" />
            <Array as="points">
              <mxPoint x="120" y="445" />
            </Array>
          </mxGeometry>
        </mxCell>
        <mxCell id="anv_v0dvvLosbIdGf6-w-31" value="manage project" style="edgeLabel;resizable=0;html=1;align=center;verticalAlign=middle;" parent="anv_v0dvvLosbIdGf6-w-30" connectable="0" vertex="1">
          <mxGeometry relative="1" as="geometry">
            <mxPoint x="73" as="offset" />
          </mxGeometry>
        </mxCell>
        <mxCell id="anv_v0dvvLosbIdGf6-w-32" value="" style="endArrow=classic;html=1;rounded=1;endFill=1;strokeColor=default;startArrow=classic;startFill=1;exitX=0.5;exitY=1;exitDx=0;exitDy=0;entryX=0;entryY=0.75;entryDx=0;entryDy=0;edgeStyle=orthogonalEdgeStyle;" parent="1" source="anv_v0dvvLosbIdGf6-w-1" target="anv_v0dvvLosbIdGf6-w-24" edge="1">
          <mxGeometry relative="1" as="geometry">
            <mxPoint x="100" y="390" as="sourcePoint" />
            <mxPoint x="255" y="410" as="targetPoint" />
            <Array as="points">
              <mxPoint x="90" y="628" />
            </Array>
          </mxGeometry>
        </mxCell>
        <mxCell id="anv_v0dvvLosbIdGf6-w-33" value="manage team" style="edgeLabel;resizable=0;html=1;align=center;verticalAlign=middle;" parent="anv_v0dvvLosbIdGf6-w-32" connectable="0" vertex="1">
          <mxGeometry relative="1" as="geometry">
            <mxPoint x="140" y="22" as="offset" />
          </mxGeometry>
        </mxCell>
        <mxCell id="anv_v0dvvLosbIdGf6-w-34" value="" style="endArrow=classic;html=1;rounded=1;startArrow=classic;startFill=1;edgeStyle=orthogonalEdgeStyle;exitX=1;exitY=0.5;exitDx=0;exitDy=0;entryX=0;entryY=0;entryDx=0;entryDy=55;entryPerimeter=0;" parent="1" source="anv_v0dvvLosbIdGf6-w-21" target="anv_v0dvvLosbIdGf6-w-7" edge="1">
          <mxGeometry relative="1" as="geometry">
            <mxPoint x="510" y="240" as="sourcePoint" />
            <mxPoint x="740" y="400" as="targetPoint" />
          </mxGeometry>
        </mxCell>
        <mxCell id="anv_v0dvvLosbIdGf6-w-35" value="user`s CRUD" style="edgeLabel;resizable=0;html=1;align=center;verticalAlign=middle;" parent="anv_v0dvvLosbIdGf6-w-34" connectable="0" vertex="1">
          <mxGeometry relative="1" as="geometry">
            <mxPoint x="-2" as="offset" />
          </mxGeometry>
        </mxCell>
        <mxCell id="anv_v0dvvLosbIdGf6-w-37" value="" style="endArrow=classic;html=1;rounded=1;startArrow=classic;startFill=1;edgeStyle=orthogonalEdgeStyle;exitX=1;exitY=0.5;exitDx=0;exitDy=0;entryX=0;entryY=0;entryDx=0;entryDy=135;entryPerimeter=0;" parent="1" source="anv_v0dvvLosbIdGf6-w-23" target="anv_v0dvvLosbIdGf6-w-7" edge="1">
          <mxGeometry relative="1" as="geometry">
            <mxPoint x="506" y="445" as="sourcePoint" />
            <mxPoint x="661" y="510" as="targetPoint" />
          </mxGeometry>
        </mxCell>
        <mxCell id="anv_v0dvvLosbIdGf6-w-38" value="project`s CRUD" style="edgeLabel;resizable=0;html=1;align=center;verticalAlign=middle;" parent="anv_v0dvvLosbIdGf6-w-37" connectable="0" vertex="1">
          <mxGeometry relative="1" as="geometry">
            <mxPoint x="-2" as="offset" />
          </mxGeometry>
        </mxCell>
        <mxCell id="anv_v0dvvLosbIdGf6-w-39" value="" style="endArrow=classic;html=1;rounded=1;startArrow=classic;startFill=1;edgeStyle=orthogonalEdgeStyle;exitX=1;exitY=0.5;exitDx=0;exitDy=0;entryX=0.145;entryY=1;entryDx=0;entryDy=-4.35;entryPerimeter=0;" parent="1" source="anv_v0dvvLosbIdGf6-w-24" target="anv_v0dvvLosbIdGf6-w-7" edge="1">
          <mxGeometry relative="1" as="geometry">
            <mxPoint x="500" y="585" as="sourcePoint" />
            <mxPoint x="655" y="520" as="targetPoint" />
          </mxGeometry>
        </mxCell>
        <mxCell id="anv_v0dvvLosbIdGf6-w-40" value="team`s CRUD" style="edgeLabel;resizable=0;html=1;align=center;verticalAlign=middle;" parent="anv_v0dvvLosbIdGf6-w-39" connectable="0" vertex="1">
          <mxGeometry relative="1" as="geometry">
            <mxPoint x="-76" as="offset" />
          </mxGeometry>
        </mxCell>
        <mxCell id="anv_v0dvvLosbIdGf6-w-41" value="" style="endArrow=classic;html=1;rounded=1;startArrow=classic;startFill=1;edgeStyle=orthogonalEdgeStyle;exitX=1;exitY=0.5;exitDx=0;exitDy=0;entryX=0.855;entryY=1;entryDx=0;entryDy=-4.35;entryPerimeter=0;" parent="1" source="anv_v0dvvLosbIdGf6-w-25" target="anv_v0dvvLosbIdGf6-w-7" edge="1">
          <mxGeometry relative="1" as="geometry">
            <mxPoint x="510" y="759" as="sourcePoint" />
            <mxPoint x="687" y="595" as="targetPoint" />
          </mxGeometry>
        </mxCell>
        <mxCell id="anv_v0dvvLosbIdGf6-w-42" value="task`s CRUD" style="edgeLabel;resizable=0;html=1;align=center;verticalAlign=middle;" parent="anv_v0dvvLosbIdGf6-w-41" connectable="0" vertex="1">
          <mxGeometry relative="1" as="geometry">
            <mxPoint x="-138" y="15" as="offset" />
          </mxGeometry>
        </mxCell>
        <mxCell id="anv_v0dvvLosbIdGf6-w-43" value="" style="endArrow=classic;html=1;rounded=1;endFill=1;strokeColor=default;startArrow=classic;startFill=1;exitX=0.25;exitY=1;exitDx=0;exitDy=0;entryX=0;entryY=0.5;entryDx=0;entryDy=0;edgeStyle=orthogonalEdgeStyle;" parent="1" source="anv_v0dvvLosbIdGf6-w-1" target="anv_v0dvvLosbIdGf6-w-25" edge="1">
          <mxGeometry relative="1" as="geometry">
            <mxPoint x="70" y="520" as="sourcePoint" />
            <mxPoint x="290" y="745" as="targetPoint" />
            <Array as="points">
              <mxPoint x="60" y="745" />
            </Array>
          </mxGeometry>
        </mxCell>
        <mxCell id="anv_v0dvvLosbIdGf6-w-44" value="manage task" style="edgeLabel;resizable=0;html=1;align=center;verticalAlign=middle;" parent="anv_v0dvvLosbIdGf6-w-43" connectable="0" vertex="1">
          <mxGeometry relative="1" as="geometry">
            <mxPoint x="130" y="62" as="offset" />
          </mxGeometry>
        </mxCell>
        <mxCell id="anv_v0dvvLosbIdGf6-w-46" value="&lt;font style=&quot;font-size: 16px;&quot;&gt;Project management system&lt;/font&gt;" style="text;html=1;strokeColor=none;fillColor=none;align=center;verticalAlign=middle;whiteSpace=wrap;rounded=0;fontStyle=1" parent="1" vertex="1">
          <mxGeometry x="9" y="20" width="250" height="30" as="geometry" />
        </mxCell>
        <mxCell id="w7G9VvaegrJ85_uGhSid-1" value="" style="endArrow=none;html=1;rounded=1;endFill=0;strokeColor=default;startArrow=classic;startFill=1;exitX=0;exitY=0.75;exitDx=0;exitDy=0;entryX=0;entryY=0.25;entryDx=0;entryDy=0;edgeStyle=orthogonalEdgeStyle;" parent="1" source="anv_v0dvvLosbIdGf6-w-23" target="anv_v0dvvLosbIdGf6-w-24" edge="1">
          <mxGeometry relative="1" as="geometry">
            <mxPoint x="110" y="500" as="sourcePoint" />
            <mxPoint x="300" y="575" as="targetPoint" />
            <Array as="points">
              <mxPoint x="230" y="478" />
              <mxPoint x="230" y="563" />
            </Array>
          </mxGeometry>
        </mxCell>
        <mxCell id="w7G9VvaegrJ85_uGhSid-2" value="get project" style="edgeLabel;resizable=0;html=1;align=center;verticalAlign=middle;" parent="w7G9VvaegrJ85_uGhSid-1" connectable="0" vertex="1">
          <mxGeometry relative="1" as="geometry">
            <mxPoint as="offset" />
          </mxGeometry>
        </mxCell>
        <mxCell id="w7G9VvaegrJ85_uGhSid-3" value="" style="endArrow=none;html=1;rounded=1;endFill=0;strokeColor=default;startArrow=classic;startFill=1;exitX=0;exitY=0.75;exitDx=0;exitDy=0;entryX=0;entryY=0.5;entryDx=0;entryDy=0;edgeStyle=orthogonalEdgeStyle;jumpStyle=arc;" parent="1" source="anv_v0dvvLosbIdGf6-w-21" target="anv_v0dvvLosbIdGf6-w-24" edge="1">
          <mxGeometry relative="1" as="geometry">
            <mxPoint x="250" y="488" as="sourcePoint" />
            <mxPoint x="250" y="573" as="targetPoint" />
            <Array as="points">
              <mxPoint x="200" y="268" />
              <mxPoint x="200" y="595" />
            </Array>
          </mxGeometry>
        </mxCell>
        <mxCell id="w7G9VvaegrJ85_uGhSid-4" value="get employee" style="edgeLabel;resizable=0;html=1;align=center;verticalAlign=middle;" parent="w7G9VvaegrJ85_uGhSid-3" connectable="0" vertex="1">
          <mxGeometry relative="1" as="geometry">
            <mxPoint x="50" y="-161" as="offset" />
          </mxGeometry>
        </mxCell>
        <mxCell id="w7G9VvaegrJ85_uGhSid-5" value="" style="endArrow=none;html=1;rounded=1;endFill=0;strokeColor=default;startArrow=classic;startFill=1;exitX=0;exitY=0.5;exitDx=0;exitDy=0;entryX=0;entryY=0.25;entryDx=0;entryDy=0;edgeStyle=orthogonalEdgeStyle;jumpStyle=arc;" parent="1" source="anv_v0dvvLosbIdGf6-w-21" target="anv_v0dvvLosbIdGf6-w-25" edge="1">
          <mxGeometry relative="1" as="geometry">
            <mxPoint x="280" y="240" as="sourcePoint" />
            <mxPoint x="280" y="567" as="targetPoint" />
            <Array as="points">
              <mxPoint x="160" y="235" />
              <mxPoint x="160" y="713" />
              <mxPoint x="310" y="713" />
            </Array>
          </mxGeometry>
        </mxCell>
        <mxCell id="w7G9VvaegrJ85_uGhSid-6" value="get employee" style="edgeLabel;resizable=0;html=1;align=center;verticalAlign=middle;" parent="w7G9VvaegrJ85_uGhSid-5" connectable="0" vertex="1">
          <mxGeometry relative="1" as="geometry">
            <mxPoint x="80" y="-239" as="offset" />
          </mxGeometry>
        </mxCell>
        <mxCell id="RCvaqIHvc5m4EhdrxrZB-1" value="" style="whiteSpace=wrap;html=1;" parent="1" vertex="1">
          <mxGeometry x="680" y="20" width="130" height="160" as="geometry" />
        </mxCell>
        <mxCell id="RCvaqIHvc5m4EhdrxrZB-2" value="&lt;b&gt;Legend&lt;/b&gt;" style="text;html=1;strokeColor=none;fillColor=none;align=center;verticalAlign=middle;whiteSpace=wrap;rounded=0;" parent="1" vertex="1">
          <mxGeometry x="715" y="20" width="60" height="30" as="geometry" />
        </mxCell>
        <mxCell id="RCvaqIHvc5m4EhdrxrZB-4" value="&lt;font style=&quot;font-size: 8px;&quot;&gt;customer`s computer&lt;/font&gt;" style="rounded=1;whiteSpace=wrap;html=1;" parent="1" vertex="1">
          <mxGeometry x="702.5" y="50" width="85" height="20" as="geometry" />
        </mxCell>
        <mxCell id="RCvaqIHvc5m4EhdrxrZB-8" value="&lt;font style=&quot;&quot;&gt;&lt;font style=&quot;font-size: 8px;&quot;&gt;microservice&lt;/font&gt;&lt;br&gt;&lt;/font&gt;" style="rounded=0;whiteSpace=wrap;html=1;" parent="1" vertex="1">
          <mxGeometry x="702.5" y="75" width="85" height="20" as="geometry" />
        </mxCell>
        <mxCell id="RCvaqIHvc5m4EhdrxrZB-11" value="&lt;font style=&quot;font-size: 8px;&quot;&gt;database&lt;/font&gt;&lt;font style=&quot;font-size: 10px;&quot;&gt;&lt;br&gt;&lt;/font&gt;" style="shape=cylinder3;whiteSpace=wrap;html=1;boundedLbl=1;backgroundOutline=1;size=15;" parent="1" vertex="1">
          <mxGeometry x="722.5" y="99.75" width="45" height="52.5" as="geometry" />
        </mxCell>
        <mxCell id="RCvaqIHvc5m4EhdrxrZB-12" value="" style="endArrow=classic;html=1;rounded=1;startArrow=classic;startFill=1;edgeStyle=orthogonalEdgeStyle;exitX=1;exitY=0.5;exitDx=0;exitDy=0;entryX=0.145;entryY=0;entryDx=0;entryDy=4.35;entryPerimeter=0;" parent="1" source="anv_v0dvvLosbIdGf6-w-6" target="anv_v0dvvLosbIdGf6-w-7" edge="1">
          <mxGeometry relative="1" as="geometry">
            <mxPoint x="495" y="87.25" as="sourcePoint" />
            <mxPoint x="650" y="152.25" as="targetPoint" />
          </mxGeometry>
        </mxCell>
        <mxCell id="RCvaqIHvc5m4EhdrxrZB-13" value="get credentials" style="edgeLabel;resizable=0;html=1;align=center;verticalAlign=middle;" parent="RCvaqIHvc5m4EhdrxrZB-12" connectable="0" vertex="1">
          <mxGeometry relative="1" as="geometry">
            <mxPoint x="-76" as="offset" />
          </mxGeometry>
        </mxCell>
        <mxCell id="RCvaqIHvc5m4EhdrxrZB-16" value="" style="endArrow=classic;html=1;rounded=0;startArrow=classic;startFill=1;" parent="1" edge="1">
          <mxGeometry relative="1" as="geometry">
            <mxPoint x="685" y="162" as="sourcePoint" />
            <mxPoint x="805" y="162" as="targetPoint" />
          </mxGeometry>
        </mxCell>
        <mxCell id="RCvaqIHvc5m4EhdrxrZB-17" value="http request" style="edgeLabel;resizable=0;html=1;align=center;verticalAlign=middle;" parent="RCvaqIHvc5m4EhdrxrZB-16" connectable="0" vertex="1">
          <mxGeometry relative="1" as="geometry" />
        </mxCell>
      </root>
    </mxGraphModel>
  </diagram>
</mxfile>
